<svg width="30" height="30" viewBox="0 0 30 30" fill="none" xmlns="http://www.w3.org/2000/svg">
<g clip-path="url(#clip0_2173_12334)">
<path d="M15.0009 0.9375C12.3525 0.939616 9.75852 1.68956 7.51758 3.10101H22.4637C20.2286 1.69326 17.6423 0.943468 15.0009 0.9375Z" fill="#B22234"/>
<path d="M7.51721 3.10059C6.55186 3.7117 5.66458 4.43819 4.875 5.26398H25.1426C24.3415 4.4358 23.4417 3.70923 22.4633 3.10059H7.51721Z" fill="white"/>
<path d="M4.87537 5.26367C4.23711 5.92724 3.66556 6.65189 3.16895 7.42718H26.8489C26.3525 6.65191 25.7811 5.92726 25.143 5.26367H4.87537Z" fill="#B22234"/>
<path d="M3.16853 7.42676C2.72468 8.11323 2.34153 8.83711 2.02344 9.59015H27.9672C27.6576 8.83802 27.2833 8.11418 26.8485 7.42676H3.16853Z" fill="white"/>
<path d="M2.02297 9.58984C1.73504 10.2912 1.5043 11.0148 1.33301 11.7533H28.666C28.4917 11.0145 28.2578 10.291 27.9667 9.58984H2.02297Z" fill="#B22234"/>
<path d="M1.33259 11.7529C1.16272 12.4641 1.04858 13.1875 0.991211 13.9164H29.0163C28.9558 13.1872 28.8386 12.4639 28.6655 11.7529H1.33259Z" fill="white"/>
<path d="M0.991631 13.916C0.959704 14.2758 0.941647 14.6366 0.9375 14.9977C0.938868 15.3587 0.954138 15.7196 0.983276 16.0794H29.0084C29.0403 15.7197 29.0584 15.3588 29.0625 14.9977C29.0611 14.6367 29.0459 14.2759 29.0167 13.916H0.991631Z" fill="#B22234"/>
<path d="M0.984375 16.084C1.04483 16.8132 1.16211 17.5365 1.33514 18.2475H28.6681C28.838 17.5363 28.9521 16.8129 29.0095 16.084H0.984375Z" fill="white"/>
<path d="M1.33301 18.2471C1.50731 18.9859 1.74115 19.7095 2.03224 20.4106H27.976C28.2639 19.7092 28.4947 18.9857 28.666 18.2471H1.33301Z" fill="#B22234"/>
<path d="M2.0332 20.4102C2.34282 21.1623 2.71711 21.8861 3.15186 22.5735H26.8319C27.2757 21.8871 27.6589 21.1632 27.977 20.4102H2.0332Z" fill="white"/>
<path d="M3.15234 22.5732C3.64881 23.3485 4.22021 24.0732 4.85831 24.7367H25.1259C25.7642 24.0732 26.3357 23.3485 26.8323 22.5732H3.15234Z" fill="#B22234"/>
<path d="M4.8584 24.7363C5.65949 25.5645 6.55933 26.2911 7.53769 26.8997H22.4838C23.4491 26.2886 24.3364 25.5621 25.126 24.7363H4.8584Z" fill="white"/>
<path d="M7.53711 26.8994C9.77215 28.3072 12.3585 29.057 14.9999 29.0629C17.6483 29.0608 20.2423 28.3109 22.4832 26.8994H7.53711Z" fill="#B22234"/>
<path d="M15 0.9375C11.2704 0.9375 7.69354 2.41908 5.05631 5.05631C2.41908 7.69354 0.9375 11.2704 0.9375 15C0.93934 15.3716 0.955909 15.743 0.987167 16.1133H16.1133V0.993233C15.7431 0.959949 15.3717 0.941357 15 0.9375Z" fill="#3C3B6E"/>
<path d="M9.96696 1.88802C9.77959 1.95643 9.59369 2.02881 9.4094 2.10512L9.61482 2.26122L9.47589 2.71017L9.84393 2.43539L10.2227 2.72333L10.0805 2.2587L10.4593 1.97591H9.99385L9.96696 1.88802ZM12.3523 1.50391L12.2062 1.97588H11.7424L12.1178 2.26125L11.9789 2.71014L12.3469 2.43538L12.7257 2.72331L12.5835 2.25875L12.9623 1.97588H12.4969L12.3523 1.50391ZM14.8553 1.50391L14.7092 1.97588H14.2454L14.6208 2.26125L14.4819 2.71014L14.8499 2.43538L15.2287 2.72331L15.0864 2.25875L15.4652 1.97588H14.9998L14.8553 1.50391ZM6.34879 3.93652C6.28267 3.98583 6.21697 4.03573 6.15173 4.0862L6.46827 4.32687L6.34879 3.93652ZM8.59785 3.10744L8.45174 3.57941H7.98792L8.36337 3.86478L8.2244 4.31367L8.59242 4.03892L8.97126 4.32684L8.82899 3.86229L9.20778 3.57941H8.74239L8.59785 3.10744ZM11.1008 3.10744L10.9547 3.57941H10.4909L10.8664 3.86478L10.7274 4.31367L11.0954 4.03892L11.4742 4.32684L11.332 3.86229L11.7108 3.57941H11.2454L11.1008 3.10744ZM13.6038 3.10744L13.4577 3.57941H12.9939L13.3693 3.86478L13.2304 4.31367L13.5984 4.03892L13.9772 4.32684L13.835 3.86229L14.2137 3.57941H13.7483L13.6038 3.10744ZM4.9763 5.14513C4.83759 5.29195 4.70206 5.44175 4.56981 5.59442L4.4699 5.91715L4.83794 5.64237L5.21674 5.93031L5.07449 5.46579L5.45329 5.18289H4.98786L4.9763 5.14513ZM7.34636 4.71092L7.20024 5.18289H6.73643L7.11187 5.46825L6.97291 5.91715L7.34093 5.64239L7.71976 5.93032L7.5775 5.46576L7.95629 5.18289H7.49089L7.34636 4.71092ZM9.84934 4.71092L9.70323 5.18289H9.23941L9.61486 5.46825L9.47589 5.91715L9.84391 5.64239L10.2227 5.93032L10.0805 5.46576L10.4593 5.18289H9.99388L9.84934 4.71092ZM12.3523 4.71092L12.2062 5.18289H11.7424L12.1178 5.46825L11.9789 5.91715L12.3469 5.64239L12.7257 5.93032L12.5835 5.46576L12.9623 5.18289H12.4969L12.3523 4.71092ZM14.8553 4.71092L14.7092 5.18289H14.2454L14.6208 5.46825L14.4819 5.91715L14.8499 5.64239L15.2287 5.93032L15.0864 5.46576L15.4652 5.18289H14.9998L14.8553 4.71092ZM3.69811 6.66124C3.56854 6.83392 3.44297 7.00955 3.32149 7.18801L3.21849 7.52069L3.58642 7.24592L3.96533 7.53385L3.82308 7.06934L4.20177 6.78644H3.73645L3.69811 6.66124ZM6.09487 6.31445L5.94875 6.78642H5.48494L5.86038 7.07179L5.72142 7.52068L6.08944 7.24593L6.46827 7.53385L6.32601 7.0693L6.7048 6.78642H6.2394L6.09487 6.31445ZM8.59785 6.31445L8.45174 6.78642H7.98792L8.36337 7.07179L8.2244 7.52068L8.59242 7.24593L8.97126 7.53385L8.82899 7.0693L9.20778 6.78642H8.74239L8.59785 6.31445ZM11.1008 6.31445L10.9547 6.78642H10.4909L10.8664 7.07179L10.7274 7.52068L11.0954 7.24593L11.4742 7.53385L11.332 7.0693L11.7108 6.78642H11.2454L11.1008 6.31445ZM13.6038 6.31445L13.4577 6.78642H12.9939L13.3693 7.07179L13.2304 7.52068L13.5984 7.24593L13.9772 7.53385L13.835 7.0693L14.2137 6.78642H13.7483L13.6038 6.31445ZM2.60131 8.38998C2.51726 8.5475 2.43623 8.7066 2.35824 8.8672L2.71381 9.1374L2.57156 8.67288L2.95036 8.38998H2.60131ZM4.84338 7.91799L4.69727 8.38996H4.23345L4.6089 8.67533L4.46993 9.12422L4.83795 8.84946L5.21678 9.13739L5.07453 8.67283L5.45331 8.38996H4.98791L4.84338 7.91799ZM7.34636 7.91799L7.20024 8.38996H6.73643L7.11187 8.67533L6.97291 9.12422L7.34093 8.84946L7.71976 9.13739L7.5775 8.67283L7.95629 8.38996H7.49089L7.34636 7.91799ZM9.84934 7.91799L9.70323 8.38996H9.23941L9.61486 8.67533L9.47589 9.12422L9.84391 8.84946L10.2227 9.13739L10.0805 8.67283L10.4593 8.38996H9.99388L9.84934 7.91799ZM12.3523 7.91799L12.2062 8.38996H11.7424L12.1178 8.67533L11.9789 9.12422L12.3469 8.84946L12.7257 9.13739L12.5835 8.67283L12.9623 8.38996H12.4969L12.3523 7.91799ZM14.8553 7.91799L14.7092 8.38996H14.2454L14.6208 8.67533L14.4819 9.12422L14.8499 8.84946L15.2287 9.13739L15.0864 8.67283L15.4652 8.38996H14.9998L14.8553 7.91799ZM3.59189 9.52146L3.44578 9.99343H2.98196L3.35741 10.2788L3.21844 10.7277L3.58646 10.4529L3.96529 10.7409L3.82304 10.2763L4.20182 9.99343H3.73642L3.59189 9.52146ZM6.09487 9.52146L5.94875 9.99343H5.48494L5.86038 10.2788L5.72142 10.7277L6.08944 10.4529L6.46827 10.7409L6.32601 10.2763L6.7048 9.99343H6.2394L6.09487 9.52146ZM8.59785 9.52146L8.45174 9.99343H7.98792L8.36337 10.2788L8.2244 10.7277L8.59242 10.4529L8.97126 10.7409L8.82899 10.2763L9.20778 9.99343H8.74239L8.59785 9.52146ZM11.1008 9.52146L10.9547 9.99343H10.4909L10.8664 10.2788L10.7274 10.7277L11.0954 10.4529L11.4742 10.7409L11.332 10.2763L11.7108 9.99343H11.2454L11.1008 9.52146ZM13.6038 9.52146L13.4577 9.99343H12.9939L13.3693 10.2788L13.2304 10.7277L13.5984 10.4529L13.9772 10.7409L13.835 10.2763L14.2137 9.99343H13.7483L13.6038 9.52146ZM2.3404 11.125L2.19429 11.597H1.73047L2.10592 11.8823L1.96695 12.3312L2.33497 12.0565L2.7138 12.3444L2.57155 11.8798L2.95033 11.597H2.48494L2.3404 11.125ZM4.84338 11.125L4.69727 11.597H4.23345L4.6089 11.8823L4.46993 12.3312L4.83795 12.0565L5.21678 12.3444L5.07453 11.8798L5.45331 11.597H4.98791L4.84338 11.125ZM7.34636 11.125L7.20024 11.597H6.73643L7.11187 11.8823L6.97291 12.3312L7.34093 12.0565L7.71976 12.3444L7.5775 11.8798L7.95629 11.597H7.49089L7.34636 11.125ZM9.84934 11.125L9.70323 11.597H9.23941L9.61486 11.8823L9.47589 12.3312L9.84391 12.0565L10.2227 12.3444L10.0805 11.8798L10.4593 11.597H9.99388L9.84934 11.125ZM12.3523 11.125L12.2062 11.597H11.7424L12.1178 11.8823L11.9789 12.3312L12.3469 12.0565L12.7257 12.3444L12.5835 11.8798L12.9623 11.597H12.4969L12.3523 11.125ZM14.8553 11.125L14.7092 11.597H14.2454L14.6208 11.8823L14.4819 12.3312L14.8499 12.0565L15.2287 12.3444L15.0864 11.8798L15.4652 11.597H14.9998L14.8553 11.125ZM3.59189 12.7285L3.44578 13.2005H2.98196L3.35741 13.4859L3.21844 13.9348L3.58646 13.66L3.96529 13.9479L3.82304 13.4834L4.20182 13.2005H3.73642L3.59189 12.7285ZM6.09487 12.7285L5.94875 13.2005H5.48494L5.86038 13.4859L5.72142 13.9348L6.08944 13.66L6.46827 13.9479L6.32601 13.4834L6.7048 13.2005H6.2394L6.09487 12.7285ZM8.59785 12.7285L8.45174 13.2005H7.98792L8.36337 13.4859L8.2244 13.9348L8.59242 13.66L8.97126 13.9479L8.82899 13.4834L9.20778 13.2005H8.74239L8.59785 12.7285ZM11.1008 12.7285L10.9547 13.2005H10.4909L10.8664 13.4859L10.7274 13.9348L11.0954 13.66L11.4742 13.9479L11.332 13.4834L11.7108 13.2005H11.2454L11.1008 12.7285ZM13.6038 12.7285L13.4577 13.2005H12.9939L13.3693 13.4859L13.2304 13.9348L13.5984 13.66L13.9772 13.9479L13.835 13.4834L14.2137 13.2005H13.7483L13.6038 12.7285ZM2.3404 14.332L2.19429 14.804H1.73047L2.10592 15.0893L1.96695 15.5382L2.33497 15.2635L2.7138 15.5514L2.57155 15.0869L2.95033 14.804H2.48494L2.3404 14.332ZM4.84338 14.332L4.69727 14.804H4.23345L4.6089 15.0893L4.46993 15.5382L4.83795 15.2635L5.21678 15.5514L5.07453 15.0869L5.45331 14.804H4.98791L4.84338 14.332ZM7.34636 14.332L7.20024 14.804H6.73643L7.11187 15.0893L6.97291 15.5382L7.34093 15.2635L7.71976 15.5514L7.5775 15.0869L7.95629 14.804H7.49089L7.34636 14.332ZM9.84934 14.332L9.70323 14.804H9.23941L9.61486 15.0893L9.47589 15.5382L9.84391 15.2635L10.2227 15.5514L10.0805 15.0869L10.4593 14.804H9.99388L9.84934 14.332ZM12.3523 14.332L12.2062 14.804H11.7424L12.1178 15.0893L11.9789 15.5382L12.3469 15.2635L12.7257 15.5514L12.5835 15.0869L12.9623 14.804H12.4969L12.3523 14.332ZM14.8553 14.332L14.7092 14.804H14.2454L14.6208 15.0893L14.4819 15.5382L14.8499 15.2635L15.2287 15.5514L15.0864 15.0869L15.4652 14.804H14.9998L14.8553 14.332Z" fill="white"/>
</g>
<defs>
<clipPath id="clip0_2173_12334">
<rect width="30" height="30" fill="white"/>
</clipPath>
</defs>
</svg>
