<svg width="27" height="30" viewBox="0 0 27 30" fill="none" xmlns="http://www.w3.org/2000/svg">
<path d="M13.3085 0.0610352C9.894 0.0610352 6.61934 1.41744 4.20491 3.83187C1.79049 6.24629 0.434082 9.52095 0.434082 12.9355V21.5184C0.434082 22.6566 0.886218 23.7481 1.69103 24.5529C2.49583 25.3577 3.58739 25.8099 4.72556 25.8099H6.7025C7.23391 25.8099 7.75483 25.6618 8.20684 25.3824C8.65885 25.1029 9.0241 24.7031 9.26164 24.2278L9.51198 23.7271C9.0493 23.4041 8.61652 23.0402 8.21882 22.6399C6.64671 21.0578 5.4408 18.7347 5.4408 15.7964C5.4408 14.745 5.61818 13.6993 5.94004 12.7109C6.08309 12.2717 6.47934 12.2202 6.87129 12.2202C9.28883 12.2202 11.4274 11.02 12.7234 9.18042C12.7894 9.08656 12.877 9.00996 12.9789 8.95708C13.0807 8.9042 13.1938 8.8766 13.3085 8.8766C13.4232 8.8766 13.5363 8.9042 13.6381 8.95708C13.74 9.00996 13.8276 9.08656 13.8936 9.18042C14.5536 10.1195 15.4298 10.8859 16.4484 11.415C17.467 11.9441 18.5979 12.2203 19.7457 12.2202C20.1377 12.2202 20.5353 12.2717 20.677 12.7109C21.0039 13.7069 21.1723 14.7481 21.1762 15.7964C21.1762 18.7361 19.9703 21.0578 18.3982 22.6399C17.9905 23.0505 17.5542 23.4138 17.105 23.7271L17.3554 24.2278C17.5929 24.7031 17.9582 25.1029 18.4102 25.3824C18.8622 25.6618 19.3831 25.8099 19.9145 25.8099H21.8915C23.0296 25.8099 24.1212 25.3577 24.926 24.5529C25.7308 23.7481 26.1829 22.6566 26.1829 21.5184V12.9355C26.1829 9.52095 24.8265 6.24629 22.4121 3.83187C19.9977 1.41744 16.723 0.0610352 13.3085 0.0610352Z" fill="#545454"/>
</svg>
